<?xml version="1.0" encoding="UTF-8" standalone="no"?>
<!DOCTYPE svg PUBLIC "-//W3C//DTD SVG 1.1//EN" "http://www.w3.org/Graphics/SVG/1.1/DTD/svg11.dtd">
<svg width="100%" height="100%" viewBox="0 0 906 827" version="1.1" xmlns="http://www.w3.org/2000/svg" xmlns:xlink="http://www.w3.org/1999/xlink" xml:space="preserve" xmlns:serif="http://www.serif.com/" style="fill-rule:evenodd;clip-rule:evenodd;stroke-linejoin:round;stroke-miterlimit:2;">
    <g transform="matrix(1,0,0,1,-228.83,-2153.21)">
        <g transform="matrix(1,0,0,1,-295.453,1134.75)">
            <path d="M524.283,1018.46L741.783,1018.46L1071.67,1429.4L1005.19,1496.24L1001.86,1518.42L734.1,1187.5L734.1,1681.01C734.1,1730.27 739.419,1761 750.058,1773.21C765.031,1789.76 788.081,1798.04 819.209,1798.04L847.578,1798.04L847.578,1819.9L568.611,1819.9L568.611,1798.04L596.389,1798.04C630.669,1798.04 654.901,1787.79 669.086,1767.3C677.755,1754.69 682.089,1725.93 682.089,1681.01L682.089,1123.67C658.842,1096.48 641.209,1078.55 629.192,1069.88C617.174,1061.21 599.541,1053.14 576.294,1045.65C564.867,1042.11 547.53,1040.33 524.283,1040.33L524.283,1018.46Z" style="fill-rule:nonzero;"/>
        </g>
        <g transform="matrix(1,0,0,1,-295.453,1134.75)">
            <g transform="matrix(0.403397,0.403397,-0.403397,0.403397,1023.25,294.318)">
                <path d="M1857.06,1000.14C1961.09,1000.14 2051.22,1039.64 2127.46,1118.64C2203.7,1197.64 2241.83,1296.25 2241.83,1414.46C2241.83,1536.21 2203.41,1637.28 2126.57,1717.66C2049.74,1798.04 1956.75,1838.23 1847.61,1838.23C1737.28,1838.23 1644.59,1799.02 1569.53,1720.61C1494.46,1642.2 1456.93,1540.74 1456.93,1416.23C1456.93,1288.96 1500.28,1185.13 1586.96,1104.75C1662.22,1035.01 1752.25,1000.14 1857.06,1000.14ZM1845.83,1043.29C1774.12,1043.29 1716.59,1069.88 1673.25,1123.08C1619.27,1189.27 1592.28,1286.2 1592.28,1413.87C1592.28,1544.68 1620.26,1645.35 1676.21,1715.88C1719.16,1769.47 1775.89,1796.26 1846.42,1796.26C1921.68,1796.26 1983.84,1766.91 2032.9,1708.2C2081.95,1649.49 2106.48,1556.89 2106.48,1430.41C2106.48,1293.29 2079.49,1191.05 2025.51,1123.67C1982.16,1070.08 1922.27,1043.29 1845.83,1043.29Z" style="fill-rule:nonzero;"/>
            </g>
        </g>
        <g transform="matrix(1,0,0,1,-295.453,1134.75)">
            <g transform="matrix(1,0,0,1,-1207.53,39.0082)">
                <path d="M2464.05,979.455C2480.6,979.455 2494.69,985.267 2506.31,996.891C2517.94,1008.51 2523.75,1022.6 2523.75,1039.15C2523.75,1055.7 2517.94,1069.88 2506.31,1081.7C2494.69,1093.53 2480.6,1099.43 2464.05,1099.43C2447.51,1099.43 2433.32,1093.53 2421.5,1081.7C2409.68,1069.88 2403.77,1055.7 2403.77,1039.15C2403.77,1022.6 2409.58,1008.51 2421.2,996.891C2432.83,985.267 2447.11,979.455 2464.05,979.455Z" style="fill-rule:nonzero;"/>
            </g>
        </g>
    </g>
</svg>
